<?xml version="1.0" encoding="UTF-8" standalone="no"?>
<!DOCTYPE svg PUBLIC "-//W3C//DTD SVG 1.1//EN" "http://www.w3.org/Graphics/SVG/1.1/DTD/svg11.dtd">
<svg width="100%" height="100%" viewBox="0 0 57 57" version="1.1" xmlns="http://www.w3.org/2000/svg" xmlns:xlink="http://www.w3.org/1999/xlink" xml:space="preserve" style="fill-rule:evenodd;clip-rule:evenodd;stroke-linejoin:round;stroke-miterlimit:1.41421;">
    <g transform="matrix(1,0,0,1,-0.8595,-1.9045)">
        <path d="M40.43,21.739L32.785,21.739L32.785,16.725C32.785,14.842 34.033,14.403 34.912,14.403C35.789,14.403 40.307,14.403 40.307,14.403L40.307,6.125L32.877,6.096C24.629,6.096 22.752,12.27 22.752,16.221L22.752,21.739L17.982,21.739L17.982,30.269L22.752,30.269C22.752,41.216 22.752,54.406 22.752,54.406L32.785,54.406C32.785,54.406 32.785,41.086 32.785,30.269L39.555,30.269L40.43,21.739Z" style="fill:white;fill-rule:nonzero;"/>
    </g>
</svg>
