<?xml version="1.0" encoding="UTF-8" standalone="no"?>
<!DOCTYPE svg PUBLIC "-//W3C//DTD SVG 1.1//EN" "http://www.w3.org/Graphics/SVG/1.1/DTD/svg11.dtd">
<svg viewBox="0 0 72 70" version="1.1" xmlns="http://www.w3.org/2000/svg" xmlns:xlink="http://www.w3.org/1999/xlink" xml:space="preserve" style="fill-rule:evenodd;clip-rule:evenodd;stroke-linejoin:round;stroke-miterlimit:1.41421;">
    <g>
        <path d="M72,42.38L72,69.001L56.566,69.001L56.566,44.165C56.566,37.927 54.336,33.669 48.75,33.669C44.484,33.669 41.949,36.536 40.832,39.313C40.426,40.305 40.32,41.684 40.32,43.075L40.32,69.001L24.883,69.001C24.883,69.001 25.09,26.934 24.883,22.579L40.32,22.579L40.32,29.157C40.289,29.208 40.246,29.259 40.219,29.309L40.32,29.309L40.32,29.157C42.371,26.001 46.031,21.489 54.23,21.489C64.387,21.489 72,28.122 72,42.38ZM8.734,0.2C3.453,0.2 0,3.665 0,8.22C0,12.677 3.355,16.243 8.531,16.243L8.633,16.243C14.016,16.243 17.363,12.677 17.363,8.22C17.262,3.665 14.016,0.2 8.734,0.2ZM0.918,69.001L16.348,69.001L16.348,22.579L0.918,22.579L0.918,69.001Z" style="fill:white;fill-rule:nonzero;"/>
    </g>
</svg>
