<?xml version="1.0" encoding="UTF-8" standalone="no"?>
<!DOCTYPE svg PUBLIC "-//W3C//DTD SVG 1.1//EN" "http://www.w3.org/Graphics/SVG/1.1/DTD/svg11.dtd">
<svg viewBox="0 0 92 92" version="1.1" xmlns="http://www.w3.org/2000/svg" xmlns:xlink="http://www.w3.org/1999/xlink" xml:space="preserve" style="fill-rule:evenodd;clip-rule:evenodd;stroke-linejoin:round;stroke-miterlimit:1.41421;">
    <g id="Artboard1" transform="matrix(1,0,0,1,-22,-22.75)">
        <rect x="22" y="22.75" width="91.25" height="91.25" style="fill:none;"/>
        <g transform="matrix(0.674677,0,0,0.674677,22,22.244)">
            <g>
                <path d="M97.926,0.75L37.324,0.75C16.742,0.75 0,17.493 0,38.075L0,98.676C0,119.258 16.742,136 37.324,136L97.926,136C118.508,136 135.25,119.254 135.25,98.676L135.25,38.075C135.25,17.493 118.508,0.75 97.926,0.75ZM123.25,98.676C123.25,112.641 111.891,124 97.926,124L37.324,124C23.359,124 12,112.641 12,98.676L12,38.075C12,24.11 23.359,12.75 37.324,12.75L97.926,12.75C111.891,12.75 123.25,24.11 123.25,38.075L123.25,98.676Z" style="fill:white;fill-rule:nonzero;"/>
                <path d="M67.625,33.528C48.406,33.528 32.773,49.161 32.773,68.375C32.773,87.594 48.406,103.227 67.625,103.227C86.84,103.227 102.477,87.594 102.477,68.375C102.477,49.161 86.84,33.528 67.625,33.528ZM67.625,91.223C55.027,91.223 44.773,80.977 44.773,68.375C44.773,55.778 55.023,45.524 67.625,45.524C80.227,45.524 90.477,55.778 90.477,68.375C90.477,80.977 80.223,91.223 67.625,91.223Z" style="fill:white;fill-rule:nonzero;"/>
                <path d="M103.938,23.352C101.625,23.352 99.355,24.286 97.723,25.926C96.078,27.559 95.137,29.832 95.137,32.153C95.137,34.465 96.082,36.735 97.723,38.375C99.352,40.008 101.625,40.95 103.938,40.95C106.258,40.95 108.52,40.008 110.16,38.375C111.801,36.735 112.738,34.461 112.738,32.153C112.738,29.832 111.801,27.559 110.16,25.926C108.527,24.286 106.258,23.352 103.938,23.352Z" style="fill:white;fill-rule:nonzero;"/>
            </g>
        </g>
    </g>
</svg>
